HIERARCHY
ROOT mixamorig:Hips
{
	OFFSET -0.000008 104.274872 1.554316
	CHANNELS 6 Xposition Yposition Zposition Xrotation Yrotation Zrotation
	JOINT mixamorig:Spine
	{
		OFFSET -0.000005 10.181595 0.131519
		CHANNELS 6 Xposition Yposition Zposition Xrotation Yrotation Zrotation
		JOINT mixamorig:Spine1
		{
			OFFSET -0.000000 9.893959 -1.470707
			CHANNELS 6 Xposition Yposition Zposition Xrotation Yrotation Zrotation
			JOINT mixamorig:Spine2
			{
				OFFSET -0.000000 9.220757 -1.370641
				CHANNELS 6 Xposition Yposition Zposition Xrotation Yrotation Zrotation
				JOINT mixamorig:Neck
				{
					OFFSET 0.000001 16.740417 -2.049036
					CHANNELS 6 Xposition Yposition Zposition Xrotation Yrotation Zrotation
					JOINT mixamorig:Head
					{
						OFFSET 0.000000 9.617874 1.685006
						CHANNELS 6 Xposition Yposition Zposition Xrotation Yrotation Zrotation
						JOINT mixamorig:HeadTop_End
						{
							OFFSET 0.000002 22.037354 7.501101
							CHANNELS 6 Xposition Yposition Zposition Xrotation Yrotation Zrotation
							End Site
							{
								OFFSET 0.000168 2310.654297 -282.823242
							}
						}
					}
				}
				JOINT mixamorig:RightShoulder
				{
					OFFSET -4.569970 11.014908 -2.160885
					CHANNELS 6 Xposition Yposition Zposition Xrotation Yrotation Zrotation
					JOINT mixamorig:RightArm
					{
						OFFSET -10.592851 -0.524811 -2.232101
						CHANNELS 6 Xposition Yposition Zposition Xrotation Yrotation Zrotation
						JOINT mixamorig:RightForeArm
						{
							OFFSET -27.841511 0.000031 -0.000004
							CHANNELS 6 Xposition Yposition Zposition Xrotation Yrotation Zrotation
							JOINT mixamorig:RightHand
							{
								OFFSET -28.328831 -0.000015 0.000015
								CHANNELS 6 Xposition Yposition Zposition Xrotation Yrotation Zrotation
								JOINT mixamorig:RightHandThumb1
								{
									OFFSET -2.464806 -1.573990 2.681852
									CHANNELS 6 Xposition Yposition Zposition Xrotation Yrotation Zrotation
									JOINT mixamorig:RightHandThumb2
									{
										OFFSET -3.215179 -1.872803 1.924282
										CHANNELS 6 Xposition Yposition Zposition Xrotation Yrotation Zrotation
										JOINT mixamorig:RightHandThumb3
										{
											OFFSET -2.654831 -1.527969 1.512609
											CHANNELS 6 Xposition Yposition Zposition Xrotation Yrotation Zrotation
											JOINT mixamorig:RightHandThumb4
											{
												OFFSET -2.018814 -1.152008 1.108052
												CHANNELS 6 Xposition Yposition Zposition Xrotation Yrotation Zrotation
												End Site
												{
													OFFSET -188.809540 -114.533607 132.431396
												}
											}
										}
									}
								}
								JOINT mixamorig:RightHandIndex1
								{
									OFFSET -9.108284 -0.517868 2.259835
									CHANNELS 6 Xposition Yposition Zposition Xrotation Yrotation Zrotation
									JOINT mixamorig:RightHandIndex2
									{
										OFFSET -3.699989 0.000000 0.001215
										CHANNELS 6 Xposition Yposition Zposition Xrotation Yrotation Zrotation
										JOINT mixamorig:RightHandIndex3
										{
											OFFSET -2.850006 0.000031 -0.000522
											CHANNELS 6 Xposition Yposition Zposition Xrotation Yrotation Zrotation
											JOINT mixamorig:RightHandIndex4
											{
												OFFSET -2.772186 -0.000015 -0.000020
												CHANNELS 6 Xposition Yposition Zposition Xrotation Yrotation Zrotation
												End Site
												{
													OFFSET -277.218445 0.000000 -0.050231
												}
											}
										}
									}
								}
								JOINT mixamorig:RightHandMiddle1
								{
									OFFSET -9.532516 -0.000031 -0.000023
									CHANNELS 6 Xposition Yposition Zposition Xrotation Yrotation Zrotation
									JOINT mixamorig:RightHandMiddle2
									{
										OFFSET -3.700005 -0.000015 0.003713
										CHANNELS 6 Xposition Yposition Zposition Xrotation Yrotation Zrotation
										JOINT mixamorig:RightHandMiddle3
										{
											OFFSET -2.949974 0.000015 -0.002054
											CHANNELS 6 Xposition Yposition Zposition Xrotation Yrotation Zrotation
											JOINT mixamorig:RightHandMiddle4
											{
												OFFSET -2.946640 0.000000 -0.000156
												CHANNELS 6 Xposition Yposition Zposition Xrotation Yrotation Zrotation
												End Site
												{
													OFFSET -294.664337 0.000000 -0.113670
												}
											}
										}
									}
								}
								JOINT mixamorig:RightHandRing1
								{
									OFFSET -9.103600 -0.043076 -1.865134
									CHANNELS 6 Xposition Yposition Zposition Xrotation Yrotation Zrotation
									JOINT mixamorig:RightHandRing2
									{
										OFFSET -3.379288 0.000000 -0.001055
										CHANNELS 6 Xposition Yposition Zposition Xrotation Yrotation Zrotation
										JOINT mixamorig:RightHandRing3
										{
											OFFSET -2.889687 -0.000015 0.000379
											CHANNELS 6 Xposition Yposition Zposition Xrotation Yrotation Zrotation
											JOINT mixamorig:RightHandRing4
											{
												OFFSET -2.638809 -0.000015 0.000941
												CHANNELS 6 Xposition Yposition Zposition Xrotation Yrotation Zrotation
												End Site
												{
													OFFSET -263.880371 0.000000 0.516020
												}
											}
										}
									}
								}
								JOINT mixamorig:RightHandPinky1
								{
									OFFSET -8.076683 -0.486710 -3.806280
									CHANNELS 6 Xposition Yposition Zposition Xrotation Yrotation Zrotation
									JOINT mixamorig:RightHandPinky2
									{
										OFFSET -3.600014 -0.000015 -0.003747
										CHANNELS 6 Xposition Yposition Zposition Xrotation Yrotation Zrotation
										JOINT mixamorig:RightHandPinky3
										{
											OFFSET -2.099983 0.000000 -0.005739
											CHANNELS 6 Xposition Yposition Zposition Xrotation Yrotation Zrotation
											JOINT mixamorig:RightHandPinky4
											{
												OFFSET -2.115768 -0.000031 -0.003680
												CHANNELS 6 Xposition Yposition Zposition Xrotation Yrotation Zrotation
												End Site
												{
													OFFSET -211.577087 0.000000 -0.350686
												}
											}
										}
									}
								}
							}
						}
					}
				}
				JOINT mixamorig:LeftShoulder
				{
					OFFSET 4.570447 11.014725 -2.160855
					CHANNELS 6 Xposition Yposition Zposition Xrotation Yrotation Zrotation
					JOINT mixamorig:LeftArm
					{
						OFFSET 10.592371 -0.524597 -2.232119
						CHANNELS 6 Xposition Yposition Zposition Xrotation Yrotation Zrotation
						JOINT mixamorig:LeftForeArm
						{
							OFFSET 27.841532 -0.000031 0.000026
							CHANNELS 6 Xposition Yposition Zposition Xrotation Yrotation Zrotation
							JOINT mixamorig:LeftHand
							{
								OFFSET 28.328846 -0.000061 0.000022
								CHANNELS 6 Xposition Yposition Zposition Xrotation Yrotation Zrotation
								JOINT mixamorig:LeftHandThumb1
								{
									OFFSET 2.466141 -1.576172 2.681732
									CHANNELS 6 Xposition Yposition Zposition Xrotation Yrotation Zrotation
									JOINT mixamorig:LeftHandThumb2
									{
										OFFSET 3.217812 -1.872070 1.916482
										CHANNELS 6 Xposition Yposition Zposition Xrotation Yrotation Zrotation
										JOINT mixamorig:LeftHandThumb3
										{
											OFFSET 2.656029 -1.528778 1.514513
											CHANNELS 6 Xposition Yposition Zposition Xrotation Yrotation Zrotation
											JOINT mixamorig:LeftHandThumb4
											{
												OFFSET 2.020889 -1.154053 1.115139
												CHANNELS 6 Xposition Yposition Zposition Xrotation Yrotation Zrotation
												End Site
												{
													OFFSET 190.885437 -115.081749 130.048782
												}
											}
										}
									}
								}
								JOINT mixamorig:LeftHandIndex1
								{
									OFFSET 9.109314 -0.518021 2.259871
									CHANNELS 6 Xposition Yposition Zposition Xrotation Yrotation Zrotation
									JOINT mixamorig:LeftHandIndex2
									{
										OFFSET 3.699989 0.000000 -0.000322
										CHANNELS 6 Xposition Yposition Zposition Xrotation Yrotation Zrotation
										JOINT mixamorig:LeftHandIndex3
										{
											OFFSET 2.850006 0.000000 0.000352
											CHANNELS 6 Xposition Yposition Zposition Xrotation Yrotation Zrotation
											JOINT mixamorig:LeftHandIndex4
											{
												OFFSET 2.774864 -0.000031 -0.000027
												CHANNELS 6 Xposition Yposition Zposition Xrotation Yrotation Zrotation
												End Site
												{
													OFFSET 277.486267 0.000000 -0.009857
												}
											}
										}
									}
								}
								JOINT mixamorig:LeftHandMiddle1
								{
									OFFSET 9.533394 0.000061 0.000044
									CHANNELS 6 Xposition Yposition Zposition Xrotation Yrotation Zrotation
									JOINT mixamorig:LeftHandMiddle2
									{
										OFFSET 3.699989 -0.000015 -0.000231
										CHANNELS 6 Xposition Yposition Zposition Xrotation Yrotation Zrotation
										JOINT mixamorig:LeftHandMiddle3
										{
											OFFSET 2.949997 -0.000015 -0.000059
											CHANNELS 6 Xposition Yposition Zposition Xrotation Yrotation Zrotation
											JOINT mixamorig:LeftHandMiddle4
											{
												OFFSET 2.952896 0.000031 0.000063
												CHANNELS 6 Xposition Yposition Zposition Xrotation Yrotation Zrotation
												End Site
												{
													OFFSET 295.289337 0.000000 0.022810
												}
											}
										}
									}
								}
								JOINT mixamorig:LeftHandRing1
								{
									OFFSET 9.104523 -0.042999 -1.865074
									CHANNELS 6 Xposition Yposition Zposition Xrotation Yrotation Zrotation
									JOINT mixamorig:LeftHandRing2
									{
										OFFSET 3.150009 -0.000031 0.000043
										CHANNELS 6 Xposition Yposition Zposition Xrotation Yrotation Zrotation
										JOINT mixamorig:LeftHandRing3
										{
											OFFSET 2.949982 -0.000015 0.000040
											CHANNELS 6 Xposition Yposition Zposition Xrotation Yrotation Zrotation
											JOINT mixamorig:LeftHandRing4
											{
												OFFSET 2.644348 0.000000 0.000057
												CHANNELS 6 Xposition Yposition Zposition Xrotation Yrotation Zrotation
												End Site
												{
													OFFSET 264.434631 0.000000 0.012105
												}
											}
										}
									}
								}
								JOINT mixamorig:LeftHandPinky1
								{
									OFFSET 8.077789 -0.486847 -3.806259
									CHANNELS 6 Xposition Yposition Zposition Xrotation Yrotation Zrotation
									JOINT mixamorig:LeftHandPinky2
									{
										OFFSET 3.599953 0.000031 0.014727
										CHANNELS 6 Xposition Yposition Zposition Xrotation Yrotation Zrotation
										JOINT mixamorig:LeftHandPinky3
										{
											OFFSET 2.100021 0.000015 0.007705
											CHANNELS 6 Xposition Yposition Zposition Xrotation Yrotation Zrotation
											JOINT mixamorig:LeftHandPinky4
											{
												OFFSET 2.125504 0.000031 0.007517
												CHANNELS 6 Xposition Yposition Zposition Xrotation Yrotation Zrotation
												End Site
												{
													OFFSET 212.550781 0.000000 0.625752
												}
											}
										}
									}
								}
							}
						}
					}
				}
			}
		}
	}
	JOINT mixamorig:RightUpLeg
	{
		OFFSET -8.207787 -6.751648 -1.599560
		CHANNELS 6 Xposition Yposition Zposition Xrotation Yrotation Zrotation
		JOINT mixamorig:RightLeg
		{
			OFFSET -0.000002 -44.370117 0.345942
			CHANNELS 6 Xposition Yposition Zposition Xrotation Yrotation Zrotation
			JOINT mixamorig:RightFoot
			{
				OFFSET 0.000003 -44.423679 -3.043532
				CHANNELS 6 Xposition Yposition Zposition Xrotation Yrotation Zrotation
				JOINT mixamorig:RightToeBase
				{
					OFFSET -0.000002 -8.728671 10.710558
					CHANNELS 6 Xposition Yposition Zposition Xrotation Yrotation Zrotation
					JOINT mixamorig:RightToe_End
					{
						OFFSET -0.000001 -0.000679 9.278119
						CHANNELS 6 Xposition Yposition Zposition Xrotation Yrotation Zrotation
						End Site
						{
							OFFSET 0.000000 -0.067690 927.812134
						}
					}
				}
			}
		}
	}
	JOINT mixamorig:LeftUpLeg
	{
		OFFSET 8.207793 -6.751686 -1.599556
		CHANNELS 6 Xposition Yposition Zposition Xrotation Yrotation Zrotation
		JOINT mixamorig:LeftLeg
		{
			OFFSET -0.000004 -44.370014 0.346954
			CHANNELS 6 Xposition Yposition Zposition Xrotation Yrotation Zrotation
			JOINT mixamorig:LeftFoot
			{
				OFFSET -0.000001 -44.423672 -3.044401
				CHANNELS 6 Xposition Yposition Zposition Xrotation Yrotation Zrotation
				JOINT mixamorig:LeftToeBase
				{
					OFFSET -0.000002 -8.728669 10.710558
					CHANNELS 6 Xposition Yposition Zposition Xrotation Yrotation Zrotation
					JOINT mixamorig:LeftToe_End
					{
						OFFSET -0.000003 -0.000679 9.278133
						CHANNELS 6 Xposition Yposition Zposition Xrotation Yrotation Zrotation
						End Site
						{
							OFFSET 0.000000 -0.068021 927.813477
						}
					}
				}
			}
		}
	}
}
MOTION
Frames: 3
Frame Time: 0.033333
0.000006 104.270477 1.554256 0.000010 0.000003 -0.000113 -0.000005 10.181587 0.131522 0.000001 -0.000003 0.000084 -0.000000 9.893967 -1.470711 0.000001 0.000000 -0.000000 -0.000000 9.220802 -1.370642 0.000000 -0.000000 -0.000000 0.000001 16.740433 -2.049030 0.000000 -0.000000 -0.000000 0.000000 9.617859 1.685014 0.000000 0.000000 0.000000 0.000002 22.037384 7.501101 0.000000 -0.000000 0.000000 -4.569968 11.014880 -2.160881 0.000008 0.000001 -0.000038 -10.592843 -0.524640 -2.232070 70.511513 -2.419894 1.710696 -27.841534 0.000000 0.000522 -57.474164 118.139870 84.922911 -28.328812 0.000023 0.000030 -0.000322 -0.000045 0.000006 -2.464478 -1.573960 2.682411 -24.822494 -155.713164 38.392975 -3.215273 -1.872630 1.924683 161.621168 29.624122 -9.470264 -2.654930 -1.527928 1.513134 150.134648 24.057265 -54.515397 -2.018831 -1.151997 1.108067 -0.000005 -0.000002 0.000004 -9.108419 -0.517580 2.260128 96.691150 20.865953 -23.443632 -3.700072 0.000283 0.001516 93.443968 19.192482 -20.331547 -2.850102 0.000348 -0.000254 92.729353 15.130114 -15.858393 -2.772146 0.000001 -0.000024 0.000001 -0.000003 -0.000001 -9.532633 0.000256 0.000204 87.560874 18.761553 -18.132639 -3.700077 0.000286 0.003956 87.975336 16.531344 -15.868964 -2.950064 0.000328 -0.001834 89.419566 14.274445 -14.124780 -2.946640 0.000001 -0.000147 0.000001 -0.000002 0.000000 -9.103712 -0.042767 -1.864882 85.007291 20.826193 -19.077162 -3.379342 0.000305 -0.000837 85.777170 13.788903 -12.833723 -2.889762 0.000345 0.000611 90.774286 9.085726 -9.256276 -2.638807 0.000016 0.000924 0.000001 0.000002 -0.000001 -8.076777 -0.486419 -3.806077 74.359416 19.475043 -14.712791 -3.600035 0.000259 -0.003571 77.466325 10.117580 -7.830033 -2.100006 0.000306 -0.005527 82.242171 6.936943 -5.862359 -2.115783 -0.000054 -0.003678 0.000001 0.000001 -0.000003 4.570446 11.014691 -2.160851 -0.000018 0.000010 -0.000021 10.592358 -0.524560 -2.232255 69.239581 16.674607 -11.554119 27.841833 0.000165 -0.000194 104.228195 -58.914691 71.949985 28.328856 -0.000028 0.000033 0.000020 -0.000090 -0.000001 2.466022 -1.576176 2.681918 -33.395882 155.909217 -20.879695 3.217788 -1.871744 1.916375 157.874960 -31.220675 0.444028 2.656111 -1.528582 1.514423 145.432677 -26.938731 39.169397 2.020891 -1.154070 1.115150 -0.000000 0.000002 0.000003 9.109375 -0.517827 2.259735 92.103981 -14.319922 14.837198 3.700038 0.000185 -0.000473 90.823307 -12.988773 13.192265 2.850055 0.000202 0.000213 89.601249 -12.316051 12.229999 2.774885 -0.000046 -0.000023 -0.000001 -0.000001 -0.000002 9.533461 0.000233 -0.000099 92.619885 -14.358043 15.013442 3.700070 0.000201 -0.000366 93.253850 -13.566391 14.348648 2.950070 0.000197 -0.000190 93.878751 -17.343872 18.542476 2.952866 -0.000042 0.000062 0.000002 0.000002 -0.000000 9.104579 -0.042822 -1.865217 91.281339 -13.937711 14.251683 3.150066 0.000220 -0.000093 95.036140 -14.266526 15.565651 2.950037 0.000171 -0.000062 97.378000 -16.177095 18.373192 2.644332 0.000029 0.000052 -0.000001 -0.000002 -0.000003 8.077834 -0.486729 -3.806389 74.985457 -17.484752 13.917281 3.600006 0.000175 0.014566 76.360176 -14.814115 12.085368 2.100054 0.000172 0.007563 80.004929 -13.896744 12.094258 2.125503 -0.000017 0.007513 -0.000002 0.000003 -0.000003 -8.207786 -6.751667 -1.599560 -0.077001 -0.000003 0.000080 -0.000002 -44.370110 0.345938 0.153719 -0.000000 -0.000000 0.000000 -44.423679 -3.043532 -0.076700 0.000000 -0.000002 -0.000006 -8.728667 10.710559 -0.000009 -0.000000 -0.000000 -0.000001 -0.000679 9.278123 0.000000 -0.000000 -0.000000 8.207792 -6.751710 -1.599556 -0.074518 -0.000003 0.000081 -0.000002 -44.370014 0.346960 0.148822 0.000002 0.000000 -0.000001 -44.423664 -3.044403 -0.074314 0.000000 -0.000002 -0.000004 -8.728671 10.710558 0.000007 -0.000000 -0.000000 0.000000 -0.000680 9.278137 -0.000000 0.000000 -0.000001 
0.000006 104.270477 1.554256 0.000010 0.000003 -0.000113 -0.000005 10.181587 0.131522 0.000001 -0.000003 0.000084 -0.000000 9.893967 -1.470711 0.000001 0.000000 -0.000000 -0.000000 9.220802 -1.370642 0.000000 -0.000000 -0.000000 0.000001 16.740433 -2.049030 0.000000 -0.000000 -0.000000 0.000000 9.617859 1.685014 0.000000 0.000000 0.000000 0.000002 22.037384 7.501101 0.000000 -0.000000 0.000000 -4.569968 11.014880 -2.160881 0.000008 0.000001 -0.000038 -10.592867 -0.524678 -2.232028 69.999153 7.242136 -5.074375 -27.841526 0.000013 0.000541 -56.208444 114.850724 79.782941 -28.328829 0.000006 0.000026 -0.000319 -0.000044 0.000007 -2.464437 -1.573691 2.682307 -52.601937 -174.734312 -24.775553 -3.215253 -1.872561 1.924634 151.373248 32.333286 12.008638 -2.654959 -1.527875 1.513069 145.578474 27.261775 -36.461093 -2.018820 -1.152028 1.108066 -0.000003 -0.000002 0.000005 -9.108364 -0.517552 2.260106 96.252645 14.644554 -16.366190 -3.700071 0.000314 0.001503 93.196442 13.026591 -13.742633 -2.850084 0.000365 -0.000276 92.549944 10.628931 -11.108895 -2.772153 -0.000016 -0.000022 0.000001 0.000001 -0.000001 -9.532581 0.000275 0.000211 89.062696 14.731395 -14.633238 -3.700078 0.000317 0.003952 88.244268 12.998937 -12.516983 -2.950068 0.000320 -0.001818 90.884444 11.772753 -11.947363 -2.946624 0.000013 -0.000156 -0.000004 -0.000001 -0.000000 -9.103707 -0.042763 -1.864908 84.569223 18.483984 -16.793871 -3.379325 0.000306 -0.000839 86.492011 11.416740 -10.759072 -2.889773 0.000354 0.000619 93.796700 7.097104 -7.631065 -2.638820 -0.000015 0.000939 -0.000002 0.000004 -0.000002 -8.076742 -0.486395 -3.806087 73.602023 17.733133 -13.197596 -3.600011 0.000259 -0.003572 76.967448 8.737267 -6.665827 -2.100006 0.000310 -0.005551 82.232418 5.009764 -4.183466 -2.115775 -0.000041 -0.003677 0.000000 -0.000002 -0.000004 4.570446 11.014691 -2.160851 -0.000018 0.000010 -0.000021 10.592357 -0.524559 -2.232263 68.804054 18.202744 -12.520422 27.841839 0.000135 -0.000224 104.968977 -60.587295 74.536837 28.328833 -0.000042 0.000031 0.000020 -0.000089 -0.000000 2.466106 -1.576174 2.681909 -25.844415 159.816017 -39.234058 3.217824 -1.871740 1.916377 164.128531 -29.598130 9.818358 2.656109 -1.528650 1.514483 143.339156 -26.215654 55.581890 2.020887 -1.154097 1.115154 0.000003 0.000000 0.000001 9.109403 -0.517866 2.259748 92.352525 -18.803217 19.563417 3.700054 0.000172 -0.000456 89.503509 -13.692257 13.592115 2.850046 0.000202 0.000194 87.927928 -10.348388 9.981415 2.774906 -0.000028 -0.000026 0.000001 -0.000001 0.000001 9.533484 0.000209 -0.000065 91.861461 -18.442390 19.031195 3.700049 0.000195 -0.000382 91.390219 -11.508452 11.786454 2.950045 0.000194 -0.000198 92.060199 -11.400229 11.817801 2.952874 -0.000018 0.000067 -0.000001 0.000004 -0.000000 9.104609 -0.042854 -1.865219 89.876868 -17.783765 17.748166 3.150052 0.000199 -0.000112 94.548956 -11.528932 12.477346 2.950020 0.000208 -0.000112 96.482952 -10.191474 11.409440 2.644317 0.000017 0.000063 0.000001 0.000002 -0.000000 8.077863 -0.486729 -3.806412 77.872196 -19.017239 15.904990 3.600033 0.000191 0.014563 80.066346 -15.043734 13.098127 2.100028 0.000189 0.007545 82.488905 -11.200805 10.248114 2.125508 -0.000015 0.007511 -0.000002 -0.000001 -0.000002 -8.207786 -6.751667 -1.599560 -0.077001 -0.000003 0.000080 -0.000002 -44.370110 0.345938 0.153719 -0.000000 -0.000000 0.000000 -44.423679 -3.043532 -0.076700 0.000000 -0.000002 -0.000006 -8.728667 10.710559 -0.000009 -0.000000 -0.000000 -0.000001 -0.000679 9.278123 0.000000 -0.000000 -0.000000 8.207792 -6.751710 -1.599556 -0.074518 -0.000003 0.000081 -0.000002 -44.370014 0.346960 0.148822 0.000002 0.000000 -0.000001 -44.423664 -3.044403 -0.074314 0.000000 -0.000002 -0.000004 -8.728671 10.710558 0.000007 -0.000000 -0.000000 0.000000 -0.000680 9.278137 -0.000000 0.000000 -0.000001 
0.000006 104.270477 1.554256 0.000010 0.000003 -0.000113 -0.000005 10.181587 0.131522 0.000001 -0.000003 0.000084 -0.000000 9.893967 -1.470711 0.000001 0.000000 -0.000000 -0.000000 9.220802 -1.370642 0.000000 -0.000000 -0.000000 0.000001 16.740433 -2.049030 0.000000 -0.000000 -0.000000 0.000000 9.617859 1.685014 0.000000 0.000000 0.000000 0.000002 22.037384 7.501101 0.000000 -0.000000 0.000000 -4.569968 11.014880 -2.160881 0.000008 0.000001 -0.000038 -10.592881 -0.524720 -2.231982 69.603220 17.212915 -12.010644 -27.841528 0.000003 0.000562 -55.491530 112.389793 76.308021 -28.328819 0.000007 0.000028 -0.000318 -0.000044 0.000006 -2.464457 -1.573706 2.682306 -53.109177 -175.470592 -26.727594 -3.215271 -1.872560 1.924632 151.517870 31.958923 9.155529 -2.654952 -1.527856 1.513084 144.914635 27.372127 -36.683542 -2.018823 -1.152000 1.108059 -0.000001 -0.000005 0.000000 -9.108354 -0.517555 2.260111 95.503612 14.613938 -16.121731 -3.700073 0.000321 0.001488 93.197317 13.108999 -13.829823 -2.850071 0.000369 -0.000281 92.880471 10.777169 -11.328574 -2.772172 -0.000017 -0.000020 -0.000001 -0.000000 0.000000 -9.532579 0.000278 0.000218 88.565431 14.130832 -13.921108 -3.700068 0.000319 0.003941 88.376200 12.770734 -12.323875 -2.950069 0.000332 -0.001837 91.189780 11.793111 -12.031514 -2.946611 0.000000 -0.000158 0.000002 -0.000000 0.000001 -9.103680 -0.042761 -1.864894 84.264358 17.583458 -15.887681 -3.379342 0.000307 -0.000841 86.176838 10.732099 -10.058974 -2.889743 0.000347 0.000638 93.594424 6.885231 -7.378565 -2.638837 -0.000001 0.000941 0.000004 0.000001 -0.000001 -8.076741 -0.486411 -3.806083 74.043738 16.978073 -12.728928 -3.600050 0.000261 -0.003585 76.996866 8.010583 -6.093062 -2.100027 0.000310 -0.005526 82.262914 4.631561 -3.856350 -2.115769 -0.000069 -0.003678 0.000000 0.000003 -0.000003 4.570446 11.014691 -2.160851 -0.000018 0.000010 -0.000021 10.592358 -0.524553 -2.232269 68.770279 14.103807 -9.677607 27.841841 0.000102 -0.000217 105.561127 -63.449555 78.283653 28.328840 -0.000028 0.000022 0.000020 -0.000089 -0.000001 2.466136 -1.576166 2.681902 -18.149066 158.248093 -52.448121 3.217825 -1.871779 1.916379 165.609807 -28.183346 15.544594 2.656113 -1.528660 1.514488 144.945630 -25.681930 55.093662 2.020884 -1.154068 1.115146 0.000001 0.000004 0.000002 9.109392 -0.517844 2.259756 93.340443 -19.106956 20.218214 3.700027 0.000175 -0.000473 89.840763 -13.346486 13.326696 2.850053 0.000214 0.000204 88.105772 -10.061163 9.734299 2.774884 -0.000031 -0.000031 0.000001 -0.000007 -0.000002 9.533477 0.000222 -0.000086 92.481943 -18.728952 19.533228 3.700063 0.000187 -0.000383 91.560052 -11.264654 11.570821 2.950050 0.000200 -0.000211 91.964747 -11.149427 11.538868 2.952864 -0.000015 0.000057 0.000000 0.000000 0.000001 9.104593 -0.042842 -1.865222 90.065675 -18.068132 18.090497 3.150028 0.000216 -0.000079 94.787282 -11.597792 12.603849 2.950020 0.000206 -0.000065 96.518148 -10.154990 11.375654 2.644327 0.000043 0.000055 -0.000001 -0.000002 -0.000003 8.077843 -0.486731 -3.806397 77.250655 -19.107905 15.805374 3.600000 0.000191 0.014562 80.183286 -15.256964 13.306449 2.100052 0.000176 0.007558 82.941186 -11.564052 10.653081 2.125500 -0.000025 0.007522 -0.000001 -0.000000 0.000001 -8.207786 -6.751667 -1.599560 -0.077001 -0.000003 0.000080 -0.000002 -44.370110 0.345938 0.153719 -0.000000 -0.000000 0.000000 -44.423679 -3.043532 -0.076700 0.000000 -0.000002 -0.000006 -8.728667 10.710559 -0.000009 -0.000000 -0.000000 -0.000001 -0.000679 9.278123 0.000000 -0.000000 -0.000000 8.207792 -6.751710 -1.599556 -0.074518 -0.000003 0.000081 -0.000002 -44.370014 0.346960 0.148822 0.000002 0.000000 -0.000001 -44.423664 -3.044403 -0.074314 0.000000 -0.000002 -0.000004 -8.728671 10.710558 0.000007 -0.000000 -0.000000 0.000000 -0.000680 9.278137 -0.000000 0.000000 -0.000001 
